<svg xmlns="http://www.w3.org/2000/svg" xmlns:xlink="http://www.w3.org/1999/xlink" version="1.1" id="Layer_1" x="0px" y="0px" style="enable-background:new 0 0 48 48;" xml:space="preserve" viewBox="21.23 14.23 5.53 19.53">
<g id="option-vertical_2_">
	<path id="option_2_" d="M26.766,17c0,1.527-1.238,2.766-2.766,2.766S21.234,18.527,21.234,17s1.238-2.766,2.766-2.766   S26.766,15.473,26.766,17z M24,21.234c-1.527,0-2.766,1.238-2.766,2.766s1.238,2.766,2.766,2.766s2.766-1.238,2.766-2.766   S25.527,21.234,24,21.234z M24,28.234c-1.527,0-2.766,1.238-2.766,2.766s1.238,2.766,2.766,2.766s2.766-1.238,2.766-2.766   S25.527,28.234,24,28.234z"/>
</g>
</svg>