<svg xmlns="http://www.w3.org/2000/svg" xmlns:xlink="http://www.w3.org/1999/xlink" version="1.1" id="Layer_1" x="0px" y="0px" style="enable-background:new 0 0 24.5 24.3;" xml:space="preserve" viewBox="0.6 0.6 23.2 23.1">
<path d="M5.1,7.4L2.9,5.2C1.6,7,0.8,9,0.6,11.2h3.1C3.9,9.8,4.3,8.5,5.1,7.4z"/>
<path d="M10.8,3.8V0.6c-2.2,0.3-4.3,1-6,2.6L7,5.4C8.1,4.5,9.5,4,10.8,3.8z"/>
<path d="M17.4,5.4l2.2-2.2c-1.8-1.4-3.9-2.3-6-2.6v3.1C14.9,4,16.2,4.5,17.4,5.4z"/>
<path d="M20.7,11.2h3.1c-0.2-2.1-1-4.2-2.3-6l-2.2,2.2C20,8.5,20.5,9.8,20.7,11.2z"/>
<path d="M13.6,20.6v3.1c2-0.2,3.9-0.9,5.6-2.3L17,19.2C15.9,19.9,14.8,20.4,13.6,20.6z"/>
<path d="M3.8,13.8H0.6c0.3,2,1.1,4,2.5,5.7l2.2-2.2C4.6,16.3,4.1,15.1,3.8,13.8z"/>
<path d="M20.6,13.8c-0.3,1.2-0.8,2.4-1.6,3.5l2.2,2.2c1.3-1.7,2.2-3.6,2.5-5.7H20.6z"/>
<path d="M7.4,19.2l-2.2,2.2c1.7,1.2,3.6,2,5.6,2.3v-3.1C9.6,20.4,8.4,19.9,7.4,19.2z"/>
<path d="M14,6.4v3.8h3.8c0.3,0,0.5,0.2,0.5,0.5v2.9c0,0.3-0.2,0.5-0.5,0.5H14v3.8c0,0.3-0.2,0.5-0.5,0.5h-2.8  c-0.3,0-0.5-0.2-0.5-0.5V14H6.4C6.1,14,6,13.8,6,13.5v-2.9c0-0.3,0.2-0.5,0.5-0.5h3.8V6.4c0-0.3,0.2-0.5,0.5-0.5h2.8  C13.8,5.9,14,6.2,14,6.4z"/>
</svg>