<svg xmlns="http://www.w3.org/2000/svg" xmlns:xlink="http://www.w3.org/1999/xlink" version="1.1" id="Layer_1" x="0px" y="0px" style="enable-background:new 0 0 18 18;" xml:space="preserve" viewBox="0.65 0.65 16.8 16.8">
<g id="remove_2_">
	<path d="M12,9l5.3-5.3c0.2-0.2,0.2-0.5,0-0.7L15,0.8c-0.2-0.2-0.5-0.2-0.7,0L9,6.1L3.8,0.8C3.6,0.6,3.2,0.6,3,0.8L0.8,3   c-0.2,0.2-0.2,0.5,0,0.7L6.1,9l-5.3,5.3c-0.2,0.2-0.2,0.5,0,0.7L3,17.2c0.2,0.2,0.5,0.2,0.7,0L9,12l5.3,5.3c0.2,0.2,0.5,0.2,0.7,0   l2.2-2.2c0.2-0.2,0.2-0.5,0-0.7L12,9z"/>
</g>
</svg>