<svg xmlns="http://www.w3.org/2000/svg" id="Layer_1" data-name="Layer 1" version="1.1" viewBox="0 0 21.9 22">
  <g id="sun">
    <path d="M11,6.6c-2.4,0-4.4,2-4.4,4.4s2,4.4,4.4,4.4,4.4-2,4.4-4.4-2-4.4-4.4-4.4ZM15.5,5.2l2.6-2.6,1.3,1.3-2.6,2.6c-.4-.5-.8-1-1.3-1.3ZM5.2,6.5l-2.6-2.6,1.3-1.3,2.6,2.6c-.5.4-1,.8-1.3,1.3ZM3.7,11.9H0v-1.8h3.7c0,0,0,1.8,0,1.8ZM10.1,3.7V0h1.8v3.7c0,0-1.8,0-1.8,0ZM11.9,18.3v3.7h-1.8v-3.7c0,0,1.8,0,1.8,0ZM21.9,10.1v1.8h-3.7c0,0,0-1.8,0-1.8h3.7ZM16.8,15.5l2.6,2.6-1.3,1.3-2.6-2.6c.5-.4,1-.8,1.3-1.3ZM6.5,16.8l-2.6,2.6-1.3-1.3,2.6-2.6c.4.5.8,1,1.3,1.3Z"/>
  </g>
</svg>