<svg xmlns="http://www.w3.org/2000/svg" xmlns:xlink="http://www.w3.org/1999/xlink" version="1.1" id="Layer_1" x="0px" y="0px" style="enable-background:new 0 0 48 48;" xml:space="preserve" viewBox="12 17 24 15">
<g id="show-lines_2_">
	<path style="fill-rule:evenodd;clip-rule:evenodd;" d="M36,31.5c0,0.275-0.225,0.5-0.5,0.5h-23c-0.275,0-0.5-0.225-0.5-0.5v-2   c0-0.275,0.225-0.5,0.5-0.5h23c0.275,0,0.5,0.225,0.5,0.5V31.5z M36,23.5c0-0.275-0.225-0.5-0.5-0.5h-23   c-0.275,0-0.5,0.225-0.5,0.5v2c0,0.275,0.225,0.5,0.5,0.5h23c0.275,0,0.5-0.225,0.5-0.5V23.5z M36,17.5c0-0.275-0.225-0.5-0.5-0.5   h-23c-0.275,0-0.5,0.225-0.5,0.5v2c0,0.275,0.225,0.5,0.5,0.5h23c0.275,0,0.5-0.225,0.5-0.5V17.5z"/>
</g>
</svg>