<svg xmlns="http://www.w3.org/2000/svg" xmlns:xlink="http://www.w3.org/1999/xlink" version="1.1" id="Layer_1" x="0px" y="0px" style="enable-background:new 0 0 48 48;" xml:space="preserve" viewBox="13 15 22 18">
<g id="menu-hamburger_2_">
	<path d="M13,18.5c0,0.275,0.225,0.5,0.5,0.5h21c0.275,0,0.5-0.225,0.5-0.5v-3c0-0.275-0.225-0.5-0.5-0.5h-21   c-0.275,0-0.5,0.225-0.5,0.5V18.5z M13,25.5c0,0.275,0.225,0.5,0.5,0.5h21c0.275,0,0.5-0.225,0.5-0.5v-3c0-0.275-0.225-0.5-0.5-0.5   h-21c-0.275,0-0.5,0.225-0.5,0.5V25.5z M13,32.5c0,0.275,0.225,0.5,0.5,0.5h21c0.275,0,0.5-0.225,0.5-0.5v-3   c0-0.275-0.225-0.5-0.5-0.5h-21c-0.275,0-0.5,0.225-0.5,0.5V32.5z"/>
</g>
</svg>