<svg xmlns="http://www.w3.org/2000/svg" xmlns:xlink="http://www.w3.org/1999/xlink" version="1.1" id="Layer_1" x="0px" y="0px" style="enable-background:new 0 0 48 48;" xml:space="preserve" viewBox="13 13 22 22">
<g id="show-thumbnails_2_">
	<path style="fill-rule:evenodd;clip-rule:evenodd;" d="M29.5,35c-0.275,0-0.5-0.225-0.5-0.5v-5c0-0.275,0.225-0.5,0.5-0.5h5   c0.275,0,0.5,0.225,0.5,0.5v5c0,0.275-0.225,0.5-0.5,0.5H29.5z M21.5,35c-0.275,0-0.5-0.225-0.5-0.5v-5c0-0.275,0.225-0.5,0.5-0.5   h5c0.275,0,0.5,0.225,0.5,0.5v5c0,0.275-0.225,0.5-0.5,0.5H21.5z M13.5,35c-0.275,0-0.5-0.225-0.5-0.5v-5   c0-0.275,0.225-0.5,0.5-0.5h5c0.275,0,0.5,0.225,0.5,0.5v5c0,0.275-0.225,0.5-0.5,0.5H13.5z M29.5,27c-0.275,0-0.5-0.225-0.5-0.5   v-5c0-0.275,0.225-0.5,0.5-0.5h5c0.275,0,0.5,0.225,0.5,0.5v5c0,0.275-0.225,0.5-0.5,0.5H29.5z M21.5,27   c-0.275,0-0.5-0.225-0.5-0.5v-5c0-0.275,0.225-0.5,0.5-0.5h5c0.275,0,0.5,0.225,0.5,0.5v5c0,0.275-0.225,0.5-0.5,0.5H21.5z    M13.5,27c-0.275,0-0.5-0.225-0.5-0.5v-5c0-0.275,0.225-0.5,0.5-0.5h5c0.275,0,0.5,0.225,0.5,0.5v5c0,0.275-0.225,0.5-0.5,0.5H13.5   z M29.5,19c-0.275,0-0.5-0.225-0.5-0.5v-5c0-0.275,0.225-0.5,0.5-0.5h5c0.275,0,0.5,0.225,0.5,0.5v5c0,0.275-0.225,0.5-0.5,0.5   H29.5z M21.5,19c-0.275,0-0.5-0.225-0.5-0.5v-5c0-0.275,0.225-0.5,0.5-0.5h5c0.275,0,0.5,0.225,0.5,0.5v5   c0,0.275-0.225,0.5-0.5,0.5H21.5z M13.5,19c-0.275,0-0.5-0.225-0.5-0.5v-5c0-0.275,0.225-0.5,0.5-0.5h5c0.275,0,0.5,0.225,0.5,0.5   v5c0,0.275-0.225,0.5-0.5,0.5H13.5z"/>
</g>
</svg>