<svg xmlns="http://www.w3.org/2000/svg" xmlns:xlink="http://www.w3.org/1999/xlink" version="1.1" id="Layer_1" x="0px" y="0px" style="enable-background:new 0 0 48 48;" xml:space="preserve" viewBox="11.75 11.75 24.38 24.38">
<g id="circle-arrow-left_2_">
	<path d="M23.937,11.75c-6.73,0-12.187,5.456-12.187,12.188s5.457,12.188,12.187,12.188c6.731,0,12.188-5.456,12.188-12.188   S30.668,11.75,23.937,11.75z M30,25.5c0,0.275-0.225,0.5-0.5,0.5H24v3.407c0,0.275-0.173,0.357-0.384,0.18l-6.398-5.329   c-0.212-0.176-0.212-0.465,0-0.641l6.398-5.329C23.827,18.111,24,18.192,24,18.468V22h5.5c0.275,0,0.5,0.225,0.5,0.5V25.5z"/>
</g>
</svg>