<svg xmlns="http://www.w3.org/2000/svg" xmlns:xlink="http://www.w3.org/1999/xlink" version="1.1" id="Layer_1" x="0px" y="0px" style="enable-background:new 0 0 48 48;" xml:space="preserve" viewBox="11.9 11.4 25.2 24.5">
<g>
	<path d="M15.4,32.9v-1.5l0-15.7h-2.9c-0.3,0-0.6,0.2-0.6,0.5v19.2c0,0.3,0.3,0.5,0.6,0.5h18.7c0.3,0,0.6-0.2,0.6-0.5v-2.5H16H15.4z   "/>
	<path d="M36.5,11.4H17.8c-0.3,0-0.6,0.2-0.6,0.5v19.3h19.3c0.3,0,0.6-0.2,0.6-0.5V11.9C37.1,11.6,36.8,11.4,36.5,11.4z M33.8,22.2   c0,0.2-0.2,0.4-0.4,0.4h-3.9v3.9c0,0.2-0.2,0.4-0.4,0.4h-2.6c-0.2,0-0.4-0.2-0.4-0.4v-3.9h-3.9c-0.2,0-0.4-0.2-0.4-0.4v-2.6   c0-0.2,0.2-0.4,0.4-0.4H26v-3.9c0-0.2,0.2-0.4,0.4-0.4H29c0.2,0,0.4,0.2,0.4,0.4v3.9h3.9c0.2,0,0.4,0.2,0.4,0.4V22.2z"/>
</g>
</svg>