<svg xmlns="http://www.w3.org/2000/svg" xmlns:xlink="http://www.w3.org/1999/xlink" version="1.1" id="Layer_1" x="0px" y="0px" style="enable-background:new 0 0 48 48;" xml:space="preserve" viewBox="11.82 14.9 23.33 18.69">
<g id="ok_2_">
	<path d="M35.008,18.27c0.196,0.193,0.197,0.51,0.003,0.705L20.536,33.448c-0.194,0.194-0.513,0.194-0.707,0l-3.245-3.246   c-0.195-0.194-0.514-0.513-0.707-0.707l-3.906-3.907c-0.195-0.193-0.195-0.512,0-0.707l3.246-3.246   c0.194-0.194,0.513-0.194,0.707,0l3.906,3.906c0.195,0.194,0.514,0.194,0.707,0L31.03,15.049c0.194-0.194,0.514-0.195,0.71-0.002   L35.008,18.27z"/>
</g>
</svg>