<svg xmlns="http://www.w3.org/2000/svg" xmlns:xlink="http://www.w3.org/1999/xlink" version="1.1" id="Layer_1" x="0px" y="0px" style="enable-background:new 0 0 48 48;" xml:space="preserve" viewBox="11.75 11.75 24.5 24.5">
<g id="play-button_2_">
	<path d="M24,36.25c-6.755,0-12.25-5.495-12.25-12.25S17.245,11.75,24,11.75S36.25,17.245,36.25,24S30.755,36.25,24,36.25z M24,15   c-4.963,0-9,4.037-9,9s4.037,9,9,9s9-4.037,9-9S28.963,15,24,15z M28.94,24.172l-7.728,4.545C21.103,28.81,21,28.762,21,28.607   v-9.215c0-0.154,0.102-0.203,0.21-0.109l7.735,4.545C29.054,23.922,29.048,24.078,28.94,24.172z"/>
</g>
</svg>