<svg xmlns="http://www.w3.org/2000/svg" xmlns:xlink="http://www.w3.org/1999/xlink" version="1.1" id="Layer_1" x="0px" y="0px" style="enable-background:new 0 0 48 48;" xml:space="preserve" viewBox="14 15 20 20">
<g id="plus_4_">
	<path id="plus_5_" d="M34,23.499v2.961c0,0.275-0.246,0.54-0.522,0.54H26v7.459C26,34.734,25.76,35,25.484,35h-2.961   C22.248,35,22,34.734,22,34.459V27h-7.5c-0.275,0-0.5-0.265-0.5-0.54v-2.961C14,23.224,14.225,23,14.5,23H22v-7.5   c0-0.275,0.248-0.5,0.523-0.5h2.961C25.76,15,26,15.225,26,15.5V23h7.478C33.754,23,34,23.224,34,23.499z"/>
</g>
</svg>