<?xml version="1.0" encoding="utf-8"?>
<!-- Generator: Adobe Illustrator 27.9.0, SVG Export Plug-In . SVG Version: 6.00 Build 0)  -->
<svg version="1.1" id="Layer_1" xmlns="http://www.w3.org/2000/svg" xmlns:xlink="http://www.w3.org/1999/xlink" x="0px" y="0px"
	 viewBox="0 0 22 22" style="enable-background:new 0 0 22 22;" xml:space="preserve">
<path d="M19.5,1.8h-17c-1.2,0-2.3,0.8-2.3,1.8v14.7c0,1,1,1.8,2.3,1.8h17c1.2,0,2.3-0.8,2.3-1.8V3.7C21.8,2.6,20.8,1.8,19.5,1.8z
	 M16.4,2.9c0.5,0,0.8,0.4,0.8,0.8c0,0.5-0.4,0.8-0.8,0.8c-0.5,0-0.8-0.4-0.8-0.8C15.5,3.3,15.9,2.9,16.4,2.9z M13.8,2.9
	c0.5,0,0.8,0.4,0.8,0.8c0,0.5-0.4,0.8-0.8,0.8c-0.5,0-0.8-0.4-0.8-0.8C12.9,3.3,13.3,2.9,13.8,2.9z M19.5,18.3h-17V5.5h17V18.3z
	 M18.8,4.6c-0.5,0-0.8-0.4-0.8-0.8c0-0.5,0.4-0.8,0.8-0.8c0.5,0,0.8,0.4,0.8,0.8C19.7,4.2,19.3,4.6,18.8,4.6z"/>
</svg>
