<svg xmlns="http://www.w3.org/2000/svg" xmlns:xlink="http://www.w3.org/1999/xlink" version="1.1" id="Layer_1" x="0px" y="0px" style="enable-background:new 0 0 48 48;" xml:space="preserve" viewBox="13 12 22 24">
<g id="list-alt_1_">
	<path d="M31,32H21v-2h10V32z M31,18H21v2h10V18z M31,22H21v2h10V22z M19,18h-2v2h2V18z M31,26H21v2h10V26z M19,30h-2v2h2V30z    M19,22h-2v2h2V22z M19,26h-2v2h2V26z M35,13c0-0.552-0.448-1-1-1H14c-0.552,0-1,0.448-1,1v22c0,0.552,0.448,1,1,1h20   c0.552,0,1-0.448,1-1V13z M33,34H15V16h18V34z"/>
</g>
</svg>