<svg xmlns="http://www.w3.org/2000/svg" xmlns:xlink="http://www.w3.org/1999/xlink" version="1.1" id="Layer_1" x="0px" y="0px" style="enable-background:new 0 0 48 48;" xml:space="preserve" viewBox="11.8 11.66 24.24 24.78">
<g id="cogwheel_2_">
	<path d="M29.1,24.7c0-0.2,0-0.4,0-0.7c0-0.2,0-0.5,0-0.7L27.7,23c-0.1-0.3-0.2-0.7-0.4-0.9l0.7-1.2c-0.3-0.4-0.6-0.7-0.9-0.9   l-1.2,0.7c-0.3-0.2-0.6-0.3-0.9-0.4l-0.3-1.4c-0.2,0-0.4,0-0.7,0c-0.2,0-0.5,0-0.7,0l-0.3,1.4c-0.3,0.1-0.7,0.2-0.9,0.4l-1.2-0.7   c-0.4,0.3-0.7,0.6-0.9,0.9l0.7,1.2c-0.2,0.3-0.3,0.6-0.4,0.9l-1.4,0.3c0,0.2,0,0.4,0,0.7c0,0.2,0,0.5,0,0.7l1.4,0.3   c0.1,0.3,0.2,0.7,0.4,0.9l-0.7,1.2c0.3,0.4,0.6,0.7,0.9,0.9l1.2-0.7c0.3,0.2,0.6,0.3,0.9,0.4l0.3,1.4c0.2,0,0.4,0,0.7,0   c0.2,0,0.5,0,0.7,0l0.3-1.4c0.3-0.1,0.7-0.2,0.9-0.4l1.2,0.7c0.4-0.3,0.7-0.6,0.9-0.9l-0.7-1.2c0.2-0.3,0.3-0.6,0.4-0.9L29.1,24.7z    M23.9,25.8c-1,0-1.8-0.8-1.8-1.8c0-1,0.8-1.8,1.8-1.8c1,0,1.8,0.8,1.8,1.8C25.7,25,24.9,25.8,23.9,25.8z"/>
</g>
<g id="refresh_00000057112130329473945510000005260679051707234480_">
	<path d="M15.1,26.9L12.2,27c-0.9-3.4-0.3-7.1,1.9-10.1c3.8-5.2,11-6.6,16.4-3l0.1,0l1.5-2.1c0.2-0.2,0.4-0.2,0.4,0.1l1.9,6.3   c0.1,0.3-0.1,0.5-0.4,0.5l-6.6,0.1c-0.3,0-0.4-0.2-0.2-0.4l1.5-2c-4.1-2.6-9.4-1.6-12.3,2.3c-1.8,2.5-2.1,5.5-1.2,8.2L15.1,26.9z    M35.7,21.1l-3.1,0.1c0.9,2.7,0.5,5.7-1.2,8.2c-2.8,3.9-8.2,4.9-12.3,2.3l1.5-2c0.2-0.2,0.1-0.4-0.2-0.4l-6.6,0.1   c-0.3,0-0.4,0.2-0.4,0.5l1.9,6.3c0.1,0.3,0.3,0.3,0.4,0.1l1.5-2.1l0.1,0c5.4,3.5,12.6,2.2,16.4-3C35.9,28.1,36.5,24.4,35.7,21.1z"/>
</g>
</svg>