<svg xmlns="http://www.w3.org/2000/svg" xmlns:xlink="http://www.w3.org/1999/xlink" version="1.1" id="Layer_1" x="0px" y="0px" style="enable-background:new 0 0 48 48;" xml:space="preserve" viewBox="19.24 12.21 9.53 23.57">
<g id="resize-vertical_2_">
	<path d="M28.635,31c0.138,0,0.17,0.08,0.073,0.177l-4.531,4.531c-0.097,0.097-0.256,0.097-0.354,0l-4.531-4.531   C19.195,31.08,19.228,31,19.365,31H22v-4.5c0-0.275,0.225-0.5,0.5-0.5h3c0.275,0,0.5,0.225,0.5,0.5V31H28.635z M22,16.991v4.5   c0,0.275,0.225,0.5,0.5,0.5h3c0.275,0,0.5-0.225,0.5-0.5v-4.5h2.635c0.138,0,0.17-0.08,0.073-0.177l-4.531-4.531   c-0.097-0.098-0.256-0.098-0.354,0l-4.531,4.531c-0.097,0.097-0.064,0.177,0.073,0.177H22z"/>
</g>
</svg>