<svg xmlns="http://www.w3.org/2000/svg" xmlns:xlink="http://www.w3.org/1999/xlink" version="1.1" id="Layer_1" x="0px" y="0px" style="enable-background:new 0 0 48 48;" xml:space="preserve" viewBox="12 13 23 22.5">
<path d="M26,16.5v-2c0-0.5,0.5-1,1-1h2c0.5,0,1,0.5,1,1v2c0,0.5-0.5,1-1,1h-2C26.5,17.5,26,17,26,16.5z"/>
<path d="M27,23.5h3c0.5,0,1-0.5,1-1v-2c0-0.5-0.5-1-1-1h-3c-0.5,0-1,0.5-1,1v2C26,23,26.5,23.5,27,23.5z"/>
<path d="M34,31.5h-7c-0.5,0-1,0.5-1,1v2c0,0.5,0.5,1,1,1h7c0.5,0,1-0.5,1-1v-2C35,32,34.5,31.5,34,31.5z"/>
<path d="M27,29.5h5c0.5,0,1-0.5,1-1v-2c0-0.5-0.5-1-1-1h-5c-0.5,0-1,0.5-1,1v2C26,29,26.5,29.5,27,29.5z"/>
<path d="M21,19.5h4L18.5,13L12,19.5h4v15c0,0.5,0.5,1,1,1h3c0.5,0,1-0.5,1-1V19.5z"/>
</svg>