<svg xmlns="http://www.w3.org/2000/svg" xmlns:xlink="http://www.w3.org/1999/xlink" version="1.1" id="Layer_1" x="0px" y="0px" style="enable-background:new 0 0 48 48;" xml:space="preserve" viewBox="12 13 23 22.5">
<path d="M30,32v2c0,0.5-0.5,1-1,1h-2c-0.5,0-1-0.5-1-1v-2c0-0.5,0.5-1,1-1h2C29.5,31,30,31.5,30,32z"/>
<path d="M21,14c0-0.6-0.5-1-1-1h-3c-0.5,0-1,0.4-1,1v15h-4l6.5,6.5L25,29h-4V14z"/>
<path d="M30,25h-3c-0.5,0-1,0.5-1,1v2c0,0.5,0.5,1,1,1h3c0.5,0,1-0.5,1-1v-2C31,25.5,30.5,25,30,25z"/>
<path d="M32,19h-5c-0.5,0-1,0.5-1,1v2c0,0.5,0.5,1,1,1h5c0.5,0,1-0.5,1-1v-2C33,19.5,32.5,19,32,19z"/>
<path d="M34,13h-7c-0.5,0-1,0.5-1,1v2c0,0.5,0.5,1,1,1h7c0.5,0,1-0.5,1-1v-2C35,13.5,34.5,13,34,13z"/>
</svg>