<svg xmlns="http://www.w3.org/2000/svg" xmlns:xlink="http://www.w3.org/1999/xlink" version="1.1" id="Layer_1" x="0px" y="0px" style="enable-background:new 0 0 48 48;" xml:space="preserve" viewBox="12 12 23.91 23.9">
<g>
	<path d="M32.9,12H15.1c-1.7,0-3.1,1.4-3.1,3.1v17.7c0,1.7,1.4,3.1,3.1,3.1h17.7c1.7,0,3.1-1.4,3.1-3.1V15.1   C36,13.4,34.6,12,32.9,12z M33.5,32.9c0,0.3-0.3,0.6-0.6,0.6H15.1c-0.3,0-0.6-0.3-0.6-0.6V15.1c0-0.3,0.3-0.6,0.6-0.6h17.7   c0.3,0,0.6,0.3,0.6,0.6V32.9z"/>
	<path d="M29.6,21.9H18.4c-0.3,0-0.5,0.2-0.5,0.5v3.2c0,0.3,0.2,0.5,0.5,0.5h11.2c0.3,0,0.5-0.2,0.5-0.5v-3.2   C30.1,22.1,29.9,21.9,29.6,21.9z"/>
</g>
</svg>