<svg xmlns="http://www.w3.org/2000/svg" xmlns:xlink="http://www.w3.org/1999/xlink" version="1.1" id="Layer_1" x="0px" y="0px" style="enable-background:new 0 0 48 48;" xml:space="preserve" viewBox="12 12 23.91 23.9">
<path d="M32.9,12H15.1c-1.7,0-3.1,1.4-3.1,3.1v17.7c0,1.7,1.4,3.1,3.1,3.1h17.7c1.7,0,3.1-1.4,3.1-3.1V15.1C36,13.4,34.6,12,32.9,12  z M31.1,25.5c0,0.3-0.2,0.5-0.5,0.5H26v4.6c0,0.3-0.2,0.5-0.5,0.5h-3c-0.3,0-0.5-0.2-0.5-0.5V26h-4.6c-0.3,0-0.5-0.2-0.5-0.5v-3  c0-0.3,0.2-0.5,0.5-0.5H22v-4.6c0-0.3,0.2-0.5,0.5-0.5h3c0.3,0,0.5,0.2,0.5,0.5V22h4.6c0.3,0,0.5,0.2,0.5,0.5V25.5z"/>
</svg>