<svg xmlns="http://www.w3.org/2000/svg" xmlns:xlink="http://www.w3.org/1999/xlink" version="1.1" id="Layer_1" x="0px" y="0px" style="enable-background:new 0 0 32 32;" xml:space="preserve" viewBox="1.1 1.6 30.6 26.9">
<style type="text/css">
	.st0{fill:none;}
</style>
<path class="st0" d="M8,18.1c-1.9,1-3.4,2.1-4.2,2.8c1.1,1,3.4,2.9,6.3,4.2c-1.4-1.4-2.3-3.4-2.3-5.6C7.9,19.1,7.9,18.6,8,18.1z"/>
<path d="M24,18.1c2,1,3.6,2.1,4.4,2.9c-1.1,1-3.7,3-6.9,4.3c1.5-1.5,2.4-3.5,2.4-5.7c0-0.5-0.1-1-0.1-1.4c-0.8,0-1.5-0.1-2.2-0.3  c0.2,0.6,0.3,1.1,0.3,1.8c0,3.3-2.7,6-6,6c-3.3,0-6-2.7-6-6c0-0.9,0.2-1.7,0.5-2.5c1-0.4,2.1-0.7,3.2-0.8c-1,0.7-1.7,1.9-1.7,3.3  c0,2.2,1.8,4,4,4c2.2,0,4-1.8,4-4c0-1.4-0.7-2.6-1.7-3.3c0.1,0,0.2,0,0.4,0.1c-1.4-1-2.4-2.5-3-4.2C6,12.3,1.1,21,1.1,21  s7.1,7.5,14.9,7.5c7.8,0,14.9-7.5,14.9-7.5s-1-1.7-2.8-3.6c-1.1,0.5-2.3,0.7-3.6,0.7C24.2,18.1,24.1,18.1,24,18.1z M15.1,21.3  l-0.7,0.7c-0.5-0.3-0.9-0.9-1.2-1.5l0.8-0.8C14.1,20.5,14.5,21.1,15.1,21.3z M3.9,21c0.8-0.7,2.3-1.9,4.2-2.8  c-0.1,0.5-0.1,0.9-0.1,1.4c0,2.2,0.9,4.2,2.3,5.6C7.3,23.9,5,22,3.9,21z"/>
<g>
	<polygon points="22.5,12.1 27.6,4.9 22.5,10.4  "/>
	<path d="M24.4,1.6c-4,0-7.3,2.9-7.3,7.3c0,4.7,3.3,7.3,7.3,7.3c4,0,7.3-3.2,7.3-7.3S28.4,1.6,24.4,1.6z M28.1,12.6   c0,0.5-0.3,0.7-0.7,0.4l-3-1.8l-2.1,2.6c-0.3,0.4-0.5,0.3-0.5-0.2v-3.3h-3c-0.5,0-0.5-0.2-0.1-0.4l8.8-5.5c0.4-0.2,0.7-0.1,0.7,0.4   V12.6z"/>
</g>
</svg>