<svg xmlns="http://www.w3.org/2000/svg" xmlns:xlink="http://www.w3.org/1999/xlink" version="1.1" id="Layer_1" x="0px" y="0px" style="enable-background:new 0 0 32 32;" xml:space="preserve" viewBox="0.56 2.6 31.04 25.25">
<g>
	<path d="M15.3,15.3L9.3,24v-3.5l5.6-6.1c-0.4-0.9-0.7-1.9-0.8-2.9l-13,8c-0.8,0.5-0.7,0.8,0.2,0.8h6.2v6.7c0,1,0.5,1.1,1.1,0.4   l4.3-5.4l6.2,3.7c0.8,0.5,1.5,0.1,1.5-0.8v-5.3c-1.4-0.5-2.7-1.3-3.8-2.3C16.2,16.7,15.7,16,15.3,15.3z"/>
	<path d="M31.5,8.9c-0.3-1.5-1-2.9-2.1-4c-1-1-2.1-1.6-3.3-2c-0.5-0.1-1-0.2-1.5-0.3c-0.2,0-0.5,0-0.8,0c-0.5,0-1,0-1.5,0.1   c-1.5,0.3-2.9,1-4,2.2C16.8,6.3,16,8.3,16,10.3c0,0.8,0.1,1.7,0.4,2.5c0.1,0.2,0.2,0.5,0.3,0.7c0.4,0.9,0.9,1.7,1.6,2.4   c0.2,0.2,0.4,0.4,0.6,0.5c0.4,0.3,0.8,0.6,1.3,0.9c0.1,0.1,0.3,0.1,0.4,0.2c0.3,0.1,0.6,0.3,1,0.4c0.2,0.1,0.5,0.1,0.7,0.2   c0.5,0.1,1,0.1,1.5,0.1c0.3,0,0.5,0,0.8,0c0.5,0,1-0.1,1.5-0.3c0.5-0.1,1-0.3,1.4-0.6c0.5-0.2,0.9-0.5,1.3-0.9   c0.2-0.2,0.4-0.3,0.6-0.5c0.4-0.4,0.7-0.8,1-1.2c0.3-0.4,0.5-0.9,0.7-1.4c0.2-0.5,0.3-1,0.4-1.5c0.1-0.5,0.1-1,0.1-1.5   C31.6,9.9,31.6,9.4,31.5,8.9z M28.1,12.5c0.1,0.1,0.1,0.4,0,0.5l-1.6,1.6c-0.1,0.1-0.4,0.1-0.5,0l-2.2-2.2l-2.2,2.2   c-0.1,0.1-0.4,0.1-0.5,0l-1.6-1.6c-0.1-0.1-0.1-0.4,0-0.5l2.2-2.2l-2.2-2.2c-0.1-0.1-0.1-0.4,0-0.5L21.1,6c0.1-0.1,0.4-0.1,0.5,0   l2.2,2.2L26,6c0.1-0.1,0.4-0.1,0.5,0l1.6,1.6c0.1,0.1,0.1,0.4,0,0.5L26,10.4L28.1,12.5z"/>
</g>
</svg>