<svg xmlns="http://www.w3.org/2000/svg" xmlns:xlink="http://www.w3.org/1999/xlink" version="1.1" id="Layer_1" x="0px" y="0px" style="enable-background:new 0 0 23.8 23.8;" xml:space="preserve" viewBox="1.1 1.2 21.45 21.55">
<g id="tag_2_">
	<path d="M10.4,1.5c-0.2-0.2-0.5-0.3-0.8-0.3h-8c-0.2,0-0.5,0.2-0.5,0.5v8c0,0.2,0.1,0.6,0.3,0.8l12.1,12.1c0.2,0.2,0.5,0.2,0.6,0   l8.3-8.3c0.2-0.2,0.2-0.5,0-0.6L10.4,1.5z M7,7C6.3,7.7,5.1,7.7,4.4,7c-0.7-0.7-0.7-1.8,0-2.6c0.7-0.7,1.8-0.7,2.6,0   C7.7,5.1,7.7,6.3,7,7z"/>
</g>
</svg>