<svg xmlns="http://www.w3.org/2000/svg" xmlns:xlink="http://www.w3.org/1999/xlink" version="1.1" id="Layer_1" x="0px" y="0px" style="enable-background:new 0 0 48 48;" xml:space="preserve" viewBox="12 11.8 24 24.2">
<g>
	<path d="M33,29v2h-8.4h-1.1H15v-2h-3v6c0,0.5,0.5,1,1,1h22c0.5,0,1-0.5,1-1v-6H33z"/>
	<path d="M16.3,21H21v7.5c0,0.3,0.3,0.5,0.5,0.5h5c0.3,0,0.5-0.2,0.5-0.5V21h4.8c0.3,0,0.3-0.2,0.2-0.4L24.6,12h0   c-0.1-0.1-0.3-0.2-0.5-0.2c-0.2,0-0.4,0.1-0.5,0.2h0l-7.4,8.6C16,20.8,16.1,21,16.3,21z"/>
</g>
</svg>